HIERARCHY
ROOT Hips
{
 OFFSET 0.000000 0.000000 0.000000
 CHANNELS 6 Xposition Yposition Zposition Yrotation Xrotation Zrotation
 JOINT Chest
 {
  OFFSET 0.000000 9.585900 0.002600
  CHANNELS 3 Yrotation Xrotation Zrotation
  JOINT Chest2
  {
   OFFSET 0.000000 9.601200 -0.005300
   CHANNELS 3 Yrotation Xrotation Zrotation
   JOINT Chest3
   {
    OFFSET 0.000000 9.561800 0.000000
    CHANNELS 3 Yrotation Xrotation Zrotation
    JOINT Chest4
    {
     OFFSET 0.000000 9.552100 0.000000
     CHANNELS 3 Yrotation Xrotation Zrotation
     JOINT Neck
     {
      OFFSET 0.000000 14.453000 0.000000
      CHANNELS 3 Yrotation Xrotation Zrotation
      JOINT Head
      {
       OFFSET 0.000000 8.936500 -0.011300
       CHANNELS 3 Yrotation Xrotation Zrotation
       End Site
       {
        OFFSET 0.000000 17.073600 -0.006000
       }
      }
     }
     JOINT RightCollar
     {
      OFFSET -2.921100 9.558500 0.000000
      CHANNELS 3 Yrotation Xrotation Zrotation
      JOINT RightShoulder
      {
       OFFSET -13.519700 0.000000 0.000000
       CHANNELS 3 Yrotation Xrotation Zrotation
       JOINT RightElbow
       {
        OFFSET 0.000000 -29.696600 0.000000
        CHANNELS 3 Yrotation Xrotation Zrotation
        JOINT RightWrist
        {
         OFFSET 0.000000 -24.004700 0.000000
         CHANNELS 3 Yrotation Xrotation Zrotation
         End Site
         {
          OFFSET 0.000000 -17.728500 0.000000
         }
        }
       }
      }
     }
     JOINT LeftCollar
     {
      OFFSET 2.921100 9.558500 0.000000
      CHANNELS 3 Yrotation Xrotation Zrotation
      JOINT LeftShoulder
      {
       OFFSET 13.519700 0.000000 0.000000
       CHANNELS 3 Yrotation Xrotation Zrotation
       JOINT LeftElbow
       {
        OFFSET 0.000000 -29.696600 0.000000
        CHANNELS 3 Yrotation Xrotation Zrotation
        JOINT LeftWrist
        {
         OFFSET 0.000000 -24.004700 0.000000
         CHANNELS 3 Yrotation Xrotation Zrotation
         End Site
         {
          OFFSET 0.000000 -17.728500 0.000000
         }
        }
       }
      }
     }
    }
   }
  }
 }
 JOINT RightHip
 {
  OFFSET -7.771700 -0.012900 -0.001300
  CHANNELS 3 Yrotation Xrotation Zrotation
  JOINT RightKnee
  {
   OFFSET 0.000000 -40.869800 0.001200
   CHANNELS 3 Yrotation Xrotation Zrotation
   JOINT RightAnkle
   {
    OFFSET 0.000000 -39.717900 0.002100
    CHANNELS 3 Yrotation Xrotation Zrotation
    JOINT RightToe
    {
     OFFSET 0.000000 -4.965400 11.033500
     CHANNELS 3 Yrotation Xrotation Zrotation
     End Site
     {
      OFFSET 0.000000 -1.423100 5.872300
     }
    }
   }
  }
 }
 JOINT LeftHip
 {
  OFFSET 7.771700 -0.012900 -0.001300
  CHANNELS 3 Yrotation Xrotation Zrotation
  JOINT LeftKnee
  {
   OFFSET 0.000000 -40.869800 0.001200
   CHANNELS 3 Yrotation Xrotation Zrotation
   JOINT LeftAnkle
   {
    OFFSET 0.000000 -39.717900 0.002100
    CHANNELS 3 Yrotation Xrotation Zrotation
    JOINT LeftToe
    {
     OFFSET 0.000000 -4.965400 11.033500
     CHANNELS 3 Yrotation Xrotation Zrotation
     End Site
     {
      OFFSET 0.000000 -1.423100 5.872300
     }
    }
   }
  }
 }
}
MOTION
Frames: 11
Frame Time: 0.008333
0.000000 85.388000 0.000000 0.000000 -5.767877 0.000000 0.000000 11.653817 0.000000 0.000000 -5.885947 0.000000 0.000000 -0.000000 0.000000 0.000000 -0.000000 0.000000 0.000000 12.528835 0.000000 0.000000 0.711642 0.000000 0.000000 -0.000000 0.000000 0.000000 0.000000 -90.000000 0.000000 -2.309062 0.000000 0.000000 2.309062 0.000000 0.000000 -0.000000 0.000000 0.000000 -0.000000 90.000000 0.000000 -2.309062 0.000000 0.000000 2.309062 0.000000 0.000000 8.520406 0.000000 0.000000 1.905762 0.000000 -0.000000 -4.658285 0.000000 0.000000 -0.000000 0.000000 0.000000 8.520406 0.000000 0.000000 1.905762 0.000000 -0.000000 -4.658285 0.000000 0.000000 -0.000000 0.000000
-34.288309 46.551369 19.852046 179.406378 -30.925159 -2.920127 0.043199 18.553285 1.282135 0.027734 2.134769 0.195519 0.129238 3.565133 0.353039 0.544101 16.154377 1.605790 3.091317 19.723981 0.088706 5.559100 0.836070 -0.789587 0.116556 1.348639 -1.926781 4.428371 -7.574668 -15.636114 -68.036622 -69.784910 112.622374 0.213996 3.659066 -23.474374 0.066562 0.264753 2.083270 -4.752421 -2.426699 13.375959 63.910657 -62.250333 -104.363245 2.581739 11.942594 15.530211 1.161415 -56.544424 -10.895184 -142.746869 79.029173 -134.837936 -8.373270 -10.980166 -4.089426 -0.019184 -0.168156 0.172952 0.053303 -57.936210 7.788531 -109.069258 81.547029 -113.545072 4.318648 -6.269444 6.182326 0.301067 0.219816 0.259781
-34.297484 46.549642 19.847914 179.470430 -30.924960 -2.941868 0.009005 18.564546 1.285846 0.048949 2.145206 0.203846 0.122682 3.565352 0.355760 0.553145 16.176769 1.623533 3.032155 19.688048 0.092309 5.491021 0.803870 -0.759289 0.083494 1.353925 -1.925525 4.506892 -7.512748 -15.644076 -66.618167 -69.318276 111.461305 0.175542 3.920761 -23.107526 0.033133 0.254977 2.080487 -4.776713 -2.472586 13.383894 63.901250 -62.242583 -104.328839 2.585878 11.882096 15.546774 1.178455 -56.536725 -10.946917 -142.781149 79.009858 -134.879451 -8.363499 -10.992716 -4.065929 -0.049616 -0.178958 0.114953 0.119926 -57.943795 7.734697 -108.974724 81.519239 -113.437796 4.243687 -6.248107 6.180264 0.339415 0.220501 0.280544
-34.311825 46.546211 19.845718 179.546125 -30.907899 -2.940638 -0.026621 18.567033 1.273120 0.085374 2.163261 0.222776 0.079299 3.548737 0.341519 0.547771 16.185388 1.634800 2.989190 19.667675 0.102972 5.423887 0.775104 -0.722510 0.053323 1.332518 -1.940660 4.588703 -7.413094 -15.632406 -65.274438 -68.842041 110.381303 0.160051 4.189912 -22.697066 0.003544 0.235057 2.066142 -4.799914 -2.496046 13.400884 63.879600 -62.238665 -104.282405 2.588278 11.813782 15.561308 1.226364 -56.545203 -11.050085 -142.807303 78.987890 -134.912120 -8.375109 -11.021209 -4.035332 -0.038896 -0.168729 0.091270 0.232321 -57.966340 7.628508 -108.844737 81.516772 -113.338707 4.213631 -6.211139 6.253220 0.304784 0.208617 0.267240
-34.321306 46.544358 19.841576 179.587330 -30.907535 -2.948472 -0.023413 18.584009 1.290045 0.062924 2.155310 0.214058 0.095638 3.558522 0.350281 0.534639 16.188659 1.639454 2.956119 19.652315 0.112856 5.354383 0.749973 -0.666778 0.046445 1.345089 -1.945962 4.658023 -7.344399 -15.631103 -64.008304 -68.362823 109.376165 0.161426 4.469758 -22.268755 -0.007223 0.244238 2.059860 -4.825261 -2.536734 13.406566 63.867283 -62.237929 -104.257049 2.582878 11.743583 15.581025 1.236431 -56.540901 -11.086564 -142.841498 78.970409 -134.961255 -8.359306 -11.043881 -4.030518 -0.055616 -0.163565 0.084182 0.337670 -57.973003 7.563432 -108.738333 81.494602 -113.227291 4.171927 -6.185971 6.238712 0.314016 0.203365 0.311312
-34.331607 46.540703 19.840984 179.628337 -30.884530 -2.945707 0.011910 18.591256 1.320294 0.004624 2.133603 0.192023 0.111372 3.567766 0.358690 0.521531 16.191948 1.644083 2.921337 19.640429 0.137030 5.283731 0.725864 -0.612501 0.058009 1.390588 -1.942421 4.716445 -7.310995 -15.645086 -62.832092 -67.894418 108.453812 0.169307 4.759525 -21.845313 -0.023915 0.251001 2.052337 -4.885716 -2.591795 13.426328 63.852990 -62.216620 -104.189601 2.587084 11.700367 15.592512 1.261071 -56.559385 -11.143431 -142.861764 78.959283 -134.982865 -8.382432 -11.070143 -4.036282 -0.034104 -0.149378 0.096329 0.459915 -58.000240 7.486751 -108.588325 81.485981 -113.104114 4.152957 -6.158633 6.303964 0.287259 0.203770 0.268300
-34.339660 46.537315 19.841188 179.681870 -30.859765 -2.954677 -0.007735 18.581921 1.325428 0.012799 2.135469 0.194274 0.098540 3.568349 0.359224 0.508814 16.194820 1.648958 2.885909 19.632274 0.173895 5.214490 0.703253 -0.563038 0.045234 1.380171 -1.953803 4.804844 -7.228190 -15.648809 -61.746346 -67.450672 107.615745 0.174731 5.052430 -21.444248 -0.041625 0.263951 2.044495 -4.952452 -2.657172 13.444253 63.807379 -62.196240 -104.081804 2.586177 11.569557 15.625885 1.283353 -56.577758 -11.196261 -142.860022 78.942699 -134.974807 -8.409993 -11.091617 -4.046130 -0.005359 -0.140169 0.116489 0.557196 -58.028019 7.427691 -108.429174 81.474986 -112.974452 4.129713 -6.139972 6.368809 0.259977 0.206622 0.267433
-34.345498 46.535842 19.839612 179.730326 -30.853067 -2.964838 -0.027923 18.588618 1.330761 0.034505 2.148213 0.207257 0.071660 3.557168 0.349497 0.495007 16.194296 1.650111 2.855207 19.626149 0.207178 5.145038 0.685512 -0.499540 0.055771 1.409726 -1.955031 4.879279 -7.186337 -15.671911 -60.739294 -67.037860 106.851041 0.176868 5.340025 -21.078695 -0.053256 0.276732 2.033170 -5.010956 -2.715674 13.460707 63.748521 -62.186062 -103.978334 2.587590 11.422239 15.668705 1.302346 -56.580437 -11.237681 -142.887555 78.924431 -135.007710 -8.419306 -11.104214 -4.026393 -0.006596 -0.143735 0.103535 0.643262 -58.036573 7.383537 -108.268507 81.454024 -112.830340 4.075593 -6.121505 6.422540 0.268942 0.208620 0.280778
-34.350139 46.534606 19.839116 179.801732 -30.843670 -2.984438 -0.074588 18.593302 1.328761 0.021171 2.139845 0.201655 0.081229 3.565844 0.356770 0.479424 16.186570 1.644673 2.828696 19.627055 0.249765 5.073677 0.670630 -0.429692 0.070043 1.446610 -1.948862 4.962488 -7.151207 -15.702953 -59.810368 -66.656589 106.157322 0.182440 5.620661 -20.750901 -0.047279 0.302575 2.026675 -5.079827 -2.780245 13.476965 63.639016 -62.197633 -103.855028 2.609472 11.266844 15.734826 1.318781 -56.580529 -11.297510 -142.943254 78.908476 -135.054046 -8.434915 -11.118681 -4.013316 0.004214 -0.148678 0.095754 0.702726 -58.044724 7.347136 -108.060675 81.430224 -112.645091 4.014960 -6.107500 6.477405 0.265353 0.222918 0.266239
-34.348462 46.534439 19.838813 179.815233 -30.842627 -3.003376 -0.068530 18.601830 1.351282 0.023744 2.140969 0.205344 0.078031 3.567691 0.355769 0.470227 16.183883 1.653067 2.791769 19.622999 0.281675 4.998029 0.656201 -0.351161 0.080779 1.478518 -1.952911 5.055733 -7.124934 -15.739588 -58.957843 -66.305200 105.528709 0.194795 5.889937 -20.462762 -0.049597 0.313989 2.011847 -5.136997 -2.835625 13.488088 63.579183 -62.185304 -103.765334 2.611341 11.141758 15.788812 1.305823 -56.579785 -11.283889 -143.005527 78.907403 -135.115382 -8.431665 -11.118765 -4.009434 0.002907 -0.163797 0.066174 0.753432 -58.045245 7.373007 -107.868283 81.386723 -112.450811 3.936326 -6.103559 6.467763 0.322169 0.244028 0.252179
-34.350401 46.532495 19.842363 179.840153 -30.818913 -2.999253 -0.092232 18.582452 1.336666 0.035354 2.150744 0.210881 0.073250 3.567606 0.355010 0.468661 16.195684 1.664622 2.746538 19.604169 0.315675 4.917336 0.641545 -0.262949 0.086535 1.499534 -1.958019 5.159924 -7.110728 -15.777658 -58.170150 -65.978769 104.951710 0.216463 6.139748 -20.217722 -0.055627 0.311365 1.995696 -5.190234 -2.890930 13.499689 63.523440 -62.168252 -103.685452 2.612187 11.021814 15.839097 1.333296 -56.602065 -11.322140 -143.081179 78.909975 -135.186280 -8.467282 -11.129779 -4.008475 0.018639 -0.159768 0.071339 0.826936 -58.065877 7.361788 -107.602200 81.365466 -112.229615 3.912334 -6.076907 6.501002 0.300511 0.244895 0.263969
